<svg width="327" height="139" viewBox="0 0 327 139" fill="none" xmlns="http://www.w3.org/2000/svg">
<path d="M12.2717 27.5676C11.4064 26.1546 9.55958 25.7106 8.14659 26.5758C6.73361 27.441 6.28957 29.2879 7.15481 30.7009L12.2717 27.5676ZM198.099 19.9999L198.229 17.0027L198.228 17.0027L198.099 19.9999ZM159.067 122.947L161.139 120.777L161.139 120.777L159.067 122.947ZM326.123 4.14358C326.25 2.49158 325.013 1.04952 323.361 0.922656C321.709 0.795781 320.267 2.03213 320.14 3.68413L326.123 4.14358ZM0.970461 52.0743C0.690671 53.7074 1.78771 55.2581 3.42077 55.5379C5.05383 55.8177 6.6045 54.7206 6.88429 53.0876L0.970461 52.0743ZM8.2865 27.1379L8.41212 24.1405C6.90441 24.0774 5.58442 25.1439 5.32959 26.6313L8.2865 27.1379ZM34.4116 30.6927C36.0653 30.5901 37.3227 29.1664 37.2202 27.5127C37.1176 25.859 35.6939 24.6016 34.0402 24.7042L34.4116 30.6927ZM9.71325 29.1342C7.15481 30.7009 7.15553 30.7021 7.15649 30.7036C7.15713 30.7047 7.15834 30.7066 7.15962 30.7087C7.1622 30.7129 7.16574 30.7187 7.17025 30.726C7.17927 30.7407 7.19216 30.7616 7.20888 30.7886C7.24233 30.8426 7.29115 30.9212 7.35515 31.0234C7.48315 31.2278 7.6719 31.5269 7.91991 31.9138C8.41589 32.6876 9.14906 33.8129 10.1075 35.2347C12.0242 38.0781 14.8435 42.11 18.4706 46.8908C25.7193 56.4451 36.2215 69.0266 49.22 81.095C75.0815 105.106 111.534 127.724 152.201 119.031L150.947 113.163C113.261 121.219 78.7831 100.355 53.3024 76.698C40.6298 64.9321 30.3581 52.6325 23.2506 43.2642C19.6996 38.5837 16.9452 34.644 15.0827 31.881C14.1516 30.4998 13.4438 29.4132 12.9713 28.676C12.735 28.3074 12.5576 28.0261 12.4405 27.8391C12.3819 27.7456 12.3385 27.6757 12.3103 27.6301C12.2962 27.6073 12.2859 27.5907 12.2795 27.5802C12.2762 27.575 12.274 27.5713 12.2727 27.5692C12.272 27.5682 12.2718 27.5677 12.2715 27.5672C12.2714 27.5672 12.2717 27.5676 9.71325 29.1342ZM152.201 119.031C192.383 110.441 213.445 86.0309 219.853 63.1292C223.039 51.7478 222.623 40.6259 218.941 32.0935C215.219 23.4691 208.079 17.4303 198.229 17.0027L197.969 22.9971C205.113 23.3072 210.448 27.5558 213.432 34.4708C216.456 41.4779 216.976 51.1476 214.075 61.5123C208.313 82.103 189.119 105.003 150.947 113.163L152.201 119.031ZM198.228 17.0027C188.811 16.5965 178.78 20.6746 169.852 27.3068C160.882 33.9692 152.755 43.4001 147.118 54.1967C135.825 75.825 134.345 103.487 156.995 125.116L161.139 120.777C140.956 101.504 142.001 76.9597 152.436 56.9738C157.663 46.9632 165.202 38.235 173.429 32.1234C181.698 25.9815 190.396 22.6704 197.97 22.9971L198.228 17.0027ZM156.995 125.116C168.534 136.138 184.683 139.764 202.088 137.797C219.49 135.83 238.431 128.264 256.111 116.502C291.435 93.0034 322.427 52.2685 326.123 4.14358L320.14 3.68413C316.62 49.5247 286.988 88.7554 252.788 111.506C235.707 122.869 217.661 129.999 201.414 131.835C185.171 133.67 171.009 130.205 161.139 120.777L156.995 125.116ZM6.88429 53.0876L11.2434 27.6445L5.32959 26.6313L0.970461 52.0743L6.88429 53.0876ZM8.2865 27.1379C8.16088 30.1353 8.161 30.1353 8.16119 30.1353C8.16136 30.1353 8.16164 30.1353 8.16198 30.1353C8.16267 30.1354 8.16367 30.1354 8.16498 30.1355C8.16761 30.1356 8.1715 30.1357 8.17663 30.1359C8.18688 30.1364 8.20209 30.137 8.22212 30.1378C8.26219 30.1395 8.32152 30.142 8.39902 30.1451C8.55401 30.1515 8.78163 30.1608 9.07294 30.1725C9.65552 30.1959 10.4929 30.2289 11.5135 30.2675C13.5541 30.3448 16.329 30.4446 19.2641 30.5346C25.0505 30.712 31.7049 30.8605 34.4116 30.6927L34.0402 24.7042C31.6799 24.8506 25.3646 24.7188 19.448 24.5374C16.5316 24.448 13.7718 24.3488 11.7405 24.2718C10.7251 24.2334 9.89225 24.2005 9.31358 24.1773C9.02426 24.1657 8.7985 24.1565 8.64527 24.1502C8.56866 24.147 8.51017 24.1446 8.47094 24.143C8.45133 24.1422 8.43652 24.1416 8.42667 24.1412C8.42175 24.1409 8.41806 24.1408 8.41563 24.1407C8.41442 24.1406 8.41352 24.1406 8.41293 24.1406C8.41264 24.1406 8.41244 24.1406 8.41229 24.1406C8.41217 24.1405 8.41212 24.1405 8.2865 27.1379Z" fill="#384874"/>
</svg>
