<svg width="18" height="18" viewBox="0 0 18 18" fill="none" xmlns="http://www.w3.org/2000/svg">
<path d="M14.0754 3.18783C14.2485 3.60128 14.5808 3.92992 14.9992 4.1015L16.4664 4.70165C16.8852 4.87292 17.2178 5.20143 17.3913 5.61491C17.5647 6.0284 17.5647 6.49299 17.3913 6.90647L16.784 8.35431C16.6105 8.76797 16.6102 9.23303 16.7845 9.6465L17.3908 11.0939C17.4768 11.2987 17.521 11.5182 17.5211 11.7399C17.5211 11.9616 17.4769 12.1811 17.391 12.386C17.3051 12.5908 17.1791 12.7769 17.0204 12.9336C16.8616 13.0904 16.6731 13.2147 16.4656 13.2994L14.9995 13.8991C14.5808 14.0701 14.248 14.3983 14.0742 14.8114L13.4665 16.2603C13.2931 16.6738 12.9604 17.0023 12.5417 17.1736C12.123 17.3449 11.6525 17.3449 11.2338 17.1736L9.76761 16.5739C9.34888 16.403 8.87858 16.4034 8.46011 16.5748L6.9929 17.1741C6.57441 17.345 6.10435 17.3449 5.68597 17.1737C5.2676 17.0026 4.93511 16.6745 4.76155 16.2614L4.15363 14.8121C3.98051 14.3987 3.64821 14.07 3.22979 13.8985L1.76257 13.2983C1.34403 13.1271 1.01146 12.7988 0.837959 12.3856C0.664456 11.9723 0.664221 11.5079 0.837305 11.0945L1.44461 9.64669C1.61762 9.2332 1.61727 8.76877 1.44363 8.35554L0.837195 6.90562C0.751215 6.70083 0.706942 6.48131 0.706906 6.25961C0.70687 6.03792 0.751071 5.81839 0.836985 5.61357C0.922898 5.40875 1.04884 5.22265 1.20761 5.06591C1.36639 4.90917 1.55488 4.78486 1.76232 4.70009L3.22848 4.10038C3.6468 3.92957 3.97941 3.60184 4.15328 3.18912L4.76102 1.74024C4.93446 1.32676 5.26713 0.998247 5.68585 0.826976C6.10457 0.655705 6.57504 0.655705 6.99376 0.826976L8.45992 1.42669C8.87865 1.59754 9.34895 1.59719 9.76742 1.42572L11.2352 0.827906C11.6539 0.656731 12.1243 0.656766 12.5429 0.828003C12.9616 0.99924 13.2942 1.32766 13.4676 1.74104L14.0756 3.19034L14.0754 3.18783Z" fill="#68BD25"/>
</svg>
