<svg width="20" height="20" viewBox="0 0 20 20" fill="none" xmlns="http://www.w3.org/2000/svg">
<path d="M12.5002 15.8333C12.5002 17.2141 11.3809 18.3333 10.0002 18.3333C8.61948 18.3333 7.50019 17.2141 7.50019 15.8333M11.4973 5.1988C11.8602 4.82387 12.0835 4.31302 12.0835 3.75001C12.0835 2.59941 11.1508 1.66667 10.0002 1.66667C8.84959 1.66667 7.91685 2.59941 7.91685 3.75001C7.91685 4.31302 8.14019 4.82387 8.5031 5.1988M2.12254 6.9358C2.11058 5.72635 2.76265 4.59693 3.81605 4.00256M17.8778 6.9358C17.8898 5.72635 17.2377 4.59693 16.1843 4.00256M15.0002 9.33334C15.0002 8.18407 14.4734 7.08187 13.5357 6.26921C12.598 5.45655 11.3263 5.00001 10.0002 5.00001C8.6741 5.00001 7.40234 5.45655 6.46465 6.26921C5.52697 7.08187 5.00019 8.18407 5.00019 9.33334C5.00019 11.2348 4.52863 12.6255 3.94024 13.6206C3.26964 14.7547 2.93433 15.3218 2.94757 15.4572C2.96272 15.6122 2.99062 15.6611 3.1163 15.753C3.22616 15.8333 3.77811 15.8333 4.88201 15.8333H15.1184C16.2223 15.8333 16.7742 15.8333 16.8841 15.753C17.0098 15.6611 17.0377 15.6122 17.0528 15.4572C17.066 15.3218 16.7307 14.7547 16.0601 13.6206C15.4717 12.6255 15.0002 11.2348 15.0002 9.33334Z" stroke="#667085" stroke-width="1.66667" stroke-linecap="round" stroke-linejoin="round"/>
</svg>
