<svg width="18" height="18" viewBox="0 0 18 18" fill="none" xmlns="http://www.w3.org/2000/svg">
<path d="M13.6574 3.18783C13.8305 3.60128 14.1628 3.92992 14.5813 4.1015L16.0485 4.70165C16.4672 4.87292 16.7999 5.20143 16.9733 5.61491C17.1467 6.0284 17.1467 6.49299 16.9733 6.90647L16.366 8.35431C16.1925 8.76797 16.1922 9.23303 16.3665 9.6465L16.9728 11.0939C17.0588 11.2987 17.1031 11.5182 17.1031 11.7399C17.1031 11.9616 17.0589 12.1811 16.973 12.386C16.8871 12.5908 16.7612 12.7769 16.6024 12.9336C16.4436 13.0904 16.2551 13.2147 16.0477 13.2994L14.5815 13.8991C14.1628 14.0701 13.83 14.3983 13.6563 14.8114L13.0485 16.2603C12.8751 16.6738 12.5424 17.0023 12.1237 17.1736C11.705 17.3449 11.2345 17.3449 10.8158 17.1736L9.34964 16.5739C8.93091 16.403 8.46061 16.4034 8.04214 16.5748L6.57493 17.1741C6.15644 17.345 5.68638 17.3449 5.268 17.1737C4.84963 17.0026 4.51714 16.6745 4.34358 16.2614L3.73566 14.8121C3.56254 14.3987 3.23024 14.07 2.81182 13.8985L1.3446 13.2983C0.926065 13.1271 0.593494 12.7988 0.419991 12.3856C0.246487 11.9723 0.246252 11.5079 0.419337 11.0945L1.02664 9.64669C1.19965 9.2332 1.1993 8.76877 1.02566 8.35554L0.419226 6.90562C0.333246 6.70083 0.288973 6.48131 0.288937 6.25961C0.288901 6.03792 0.333103 5.81839 0.419016 5.61357C0.50493 5.40875 0.630871 5.22265 0.789645 5.06591C0.948417 4.90917 1.13691 4.78486 1.34435 4.70009L2.81051 4.10038C3.22884 3.92957 3.56144 3.60184 3.73531 3.18912L4.34305 1.74024C4.51649 1.32676 4.84916 0.998247 5.26788 0.826976C5.6866 0.655705 6.15707 0.655705 6.57579 0.826976L8.04195 1.42669C8.46068 1.59754 8.93098 1.59719 9.34945 1.42572L10.8173 0.827906C11.2359 0.656731 11.7063 0.656766 12.1249 0.828003C12.5436 0.99924 12.8762 1.32766 13.0497 1.74104L13.6576 3.19034L13.6574 3.18783Z" fill="#B6B2AF"/>
</svg>
