<svg width="18" height="20" viewBox="0 0 18 20" fill="none" xmlns="http://www.w3.org/2000/svg">
<path d="M9 10.8333C9.41421 10.8333 9.75 10.4602 9.75 9.99992C9.75 9.53968 9.41421 9.16659 9 9.16659C8.58579 9.16659 8.25 9.53968 8.25 9.99992C8.25 10.4602 8.58579 10.8333 9 10.8333Z" stroke="white" stroke-width="2" stroke-linecap="round" stroke-linejoin="round"/>
<path d="M9 4.99992C9.41421 4.99992 9.75 4.62682 9.75 4.16659C9.75 3.70635 9.41421 3.33325 9 3.33325C8.58579 3.33325 8.25 3.70635 8.25 4.16659C8.25 4.62682 8.58579 4.99992 9 4.99992Z" stroke="white" stroke-width="2" stroke-linecap="round" stroke-linejoin="round"/>
<path d="M9 16.6666C9.41421 16.6666 9.75 16.2935 9.75 15.8333C9.75 15.373 9.41421 14.9999 9 14.9999C8.58579 14.9999 8.25 15.373 8.25 15.8333C8.25 16.2935 8.58579 16.6666 9 16.6666Z" stroke="white" stroke-width="2" stroke-linecap="round" stroke-linejoin="round"/>
</svg>
