<svg width="14" height="14" viewBox="0 0 14 14" fill="none" xmlns="http://www.w3.org/2000/svg">
<path d="M1.23346 10.8988C1.26199 10.6421 1.27625 10.5138 1.31509 10.3938C1.34955 10.2873 1.39823 10.186 1.45982 10.0926C1.52924 9.98737 1.62056 9.89605 1.80321 9.7134L10.0023 1.51433C10.6881 0.828558 11.7999 0.828558 12.4857 1.51433C13.1714 2.2001 13.1714 3.31195 12.4857 3.99772L4.28659 12.1968C4.10395 12.3794 4.01263 12.4708 3.90735 12.5402C3.81395 12.6018 3.71266 12.6505 3.60622 12.6849C3.48624 12.7238 3.35789 12.738 3.10117 12.7665L1 13L1.23346 10.8988Z" stroke="#868FA0" stroke-width="1.66667" stroke-linecap="round" stroke-linejoin="round"/>
</svg>
