<svg width="16" height="12" viewBox="0 0 16 12" fill="none" xmlns="http://www.w3.org/2000/svg">
<path d="M1.33337 2.66675L6.77665 6.47704C7.21743 6.78559 7.43783 6.93986 7.67755 6.99962C7.8893 7.0524 8.11078 7.0524 8.32253 6.99962C8.56226 6.93986 8.78265 6.78559 9.22343 6.47704L14.6667 2.66675M4.53337 11.3334H11.4667C12.5868 11.3334 13.1469 11.3334 13.5747 11.1154C13.951 10.9237 14.257 10.6177 14.4487 10.2414C14.6667 9.81357 14.6667 9.25352 14.6667 8.13341V3.86675C14.6667 2.74664 14.6667 2.18659 14.4487 1.75877C14.257 1.38244 13.951 1.07648 13.5747 0.884735C13.1469 0.666748 12.5868 0.666748 11.4667 0.666748H4.53337C3.41327 0.666748 2.85322 0.666748 2.42539 0.884735C2.04907 1.07648 1.74311 1.38244 1.55136 1.75877C1.33337 2.18659 1.33337 2.74664 1.33337 3.86675V8.13341C1.33337 9.25352 1.33337 9.81357 1.55136 10.2414C1.74311 10.6177 2.04907 10.9237 2.42539 11.1154C2.85322 11.3334 3.41327 11.3334 4.53337 11.3334Z" stroke="#667085" stroke-width="1.33333" stroke-linecap="round" stroke-linejoin="round"/>
</svg>
