<svg width="18" height="20" viewBox="0 0 18 20" fill="none" xmlns="http://www.w3.org/2000/svg">
<path d="M9 3.33366V12.667C9 14.0671 9 14.7672 9.27248 15.302C9.51217 15.7724 9.89462 16.1548 10.365 16.3945C10.8998 16.667 11.5999 16.667 13 16.667H13.1667M13.1667 16.667C13.1667 17.5875 13.9129 18.3337 14.8333 18.3337C15.7538 18.3337 16.5 17.5875 16.5 16.667C16.5 15.7465 15.7538 15.0003 14.8333 15.0003C13.9129 15.0003 13.1667 15.7465 13.1667 16.667ZM4.83333 3.33366L13.1667 3.33366M4.83333 3.33366C4.83333 4.25413 4.08714 5.00033 3.16667 5.00033C2.24619 5.00033 1.5 4.25413 1.5 3.33366C1.5 2.41318 2.24619 1.66699 3.16667 1.66699C4.08714 1.66699 4.83333 2.41318 4.83333 3.33366ZM13.1667 3.33366C13.1667 4.25413 13.9129 5.00033 14.8333 5.00033C15.7538 5.00033 16.5 4.25413 16.5 3.33366C16.5 2.41318 15.7538 1.66699 14.8333 1.66699C13.9129 1.66699 13.1667 2.41318 13.1667 3.33366ZM9 10.0003H13.1667M13.1667 10.0003C13.1667 10.9208 13.9129 11.667 14.8333 11.667C15.7538 11.667 16.5 10.9208 16.5 10.0003C16.5 9.07985 15.7538 8.33366 14.8333 8.33366C13.9129 8.33366 13.1667 9.07985 13.1667 10.0003Z" stroke="#667085" stroke-width="1.66667" stroke-linecap="round" stroke-linejoin="round"/>
</svg>
