<svg width="21" height="20" viewBox="0 0 21 20" fill="none" xmlns="http://www.w3.org/2000/svg">
<path d="M3.32174 4.72239C2.69146 4.01796 2.37631 3.66574 2.36443 3.3664C2.3541 3.10636 2.46585 2.85643 2.66652 2.69074C2.89753 2.5 3.37015 2.5 4.3154 2.5H16.6845C17.6298 2.5 18.1024 2.5 18.3334 2.69074C18.5341 2.85643 18.6458 3.10636 18.6355 3.3664C18.6236 3.66574 18.3084 4.01796 17.6782 4.72239L12.923 10.037C12.7973 10.1774 12.7345 10.2477 12.6897 10.3276C12.65 10.3984 12.6208 10.4747 12.6032 10.554C12.5833 10.6435 12.5833 10.7377 12.5833 10.9261V15.382C12.5833 15.5449 12.5833 15.6264 12.557 15.6969C12.5338 15.7591 12.496 15.8149 12.4468 15.8596C12.3912 15.9102 12.3155 15.9404 12.1642 16.001L9.33088 17.1343C9.02459 17.2568 8.87145 17.3181 8.74851 17.2925C8.64101 17.2702 8.54666 17.2063 8.48599 17.1148C8.41662 17.0101 8.41662 16.8452 8.41662 16.5153V10.9261C8.41662 10.7377 8.41662 10.6435 8.39672 10.554C8.37907 10.4747 8.34992 10.3984 8.31019 10.3276C8.2654 10.2477 8.20258 10.1774 8.07694 10.037L3.32174 4.72239Z" stroke="#344054" stroke-width="1.66667" stroke-linecap="round" stroke-linejoin="round"/>
</svg>
