<svg width="18" height="19" viewBox="0 0 18 19" fill="none" xmlns="http://www.w3.org/2000/svg">
<path d="M12.3333 4.22591V3.55924C12.3333 2.62582 12.3333 2.15911 12.1517 1.80259C11.9919 1.48899 11.7369 1.23402 11.4233 1.07423C11.0668 0.892578 10.6001 0.892578 9.66667 0.892578H8.33333C7.39991 0.892578 6.9332 0.892578 6.57668 1.07423C6.26308 1.23402 6.00811 1.48899 5.84832 1.80259C5.66667 2.15911 5.66667 2.62582 5.66667 3.55924V4.22591M7.33333 8.80925V12.9759M10.6667 8.80925V12.9759M1.5 4.22591H16.5M14.8333 4.22591V13.5592C14.8333 14.9594 14.8333 15.6594 14.5608 16.1942C14.3212 16.6646 13.9387 17.0471 13.4683 17.2868C12.9335 17.5592 12.2335 17.5592 10.8333 17.5592H7.16667C5.76654 17.5592 5.06647 17.5592 4.53169 17.2868C4.06129 17.0471 3.67883 16.6646 3.43915 16.1942C3.16667 15.6594 3.16667 14.9594 3.16667 13.5592V4.22591" stroke="#667085" stroke-width="1.66667" stroke-linecap="round" stroke-linejoin="round"/>
</svg>
