<svg width="23" height="20" viewBox="0 0 23 20" fill="none" xmlns="http://www.w3.org/2000/svg">
<path d="M18.5001 19H19.5105C20.4817 19 20.9673 19 21.2349 18.7975C21.4681 18.6211 21.6124 18.3515 21.6298 18.0596C21.6498 17.7246 21.3805 17.3205 20.8418 16.5125L17.8314 11.9969C17.3863 11.3292 17.1637 10.9954 16.8832 10.8791C16.638 10.7773 16.3623 10.7773 16.1171 10.8791C15.8365 10.9954 15.614 11.3292 15.1689 11.9969L14.4247 13.1132M18.5001 19L10.8156 7.90018C10.3737 7.26182 10.1527 6.94264 9.87672 6.83044C9.63526 6.73228 9.36502 6.73228 9.12356 6.83044C8.84754 6.94264 8.62657 7.26182 8.18463 7.90018L2.23834 16.4893C1.67531 17.3025 1.3938 17.7092 1.40983 18.0473C1.42379 18.3419 1.56701 18.6152 1.80121 18.7943C2.07014 19 2.56471 19 3.55385 19H18.5001ZM20.5001 4C20.5001 5.65685 19.157 7 17.5001 7C15.8433 7 14.5001 5.65685 14.5001 4C14.5001 2.34315 15.8433 1 17.5001 1C19.157 1 20.5001 2.34315 20.5001 4Z" stroke="#475467" stroke-width="2" stroke-linecap="round" stroke-linejoin="round"/>
</svg>
