<svg width="20" height="20" viewBox="0 0 20 20" fill="none" xmlns="http://www.w3.org/2000/svg">
<g clip-path="url(#clip0_5150_41641)">
<path d="M1.66669 10L9.70188 14.0176C9.8112 14.0723 9.86586 14.0996 9.92319 14.1103C9.97397 14.1199 10.0261 14.1199 10.0769 14.1103C10.1342 14.0996 10.1888 14.0723 10.2982 14.0176L18.3334 10M1.66669 14.1667L9.70188 18.1843C9.8112 18.2389 9.86586 18.2663 9.92319 18.277C9.97397 18.2865 10.0261 18.2865 10.0769 18.277C10.1342 18.2663 10.1888 18.2389 10.2982 18.1843L18.3334 14.1667M1.66669 5.83334L9.70188 1.81574C9.8112 1.76108 9.86586 1.73375 9.92319 1.723C9.97397 1.71347 10.0261 1.71347 10.0769 1.723C10.1342 1.73375 10.1888 1.76108 10.2982 1.81574L18.3334 5.83334L10.2982 9.85093C10.1888 9.90559 10.1342 9.93292 10.0769 9.94368C10.0261 9.9532 9.97397 9.9532 9.92319 9.94368C9.86586 9.93292 9.8112 9.90559 9.70188 9.85093L1.66669 5.83334Z" stroke="#667085" stroke-width="1.66667" stroke-linecap="round" stroke-linejoin="round"/>
</g>
<defs>
<clipPath id="clip0_5150_41641">
<rect width="20" height="20" fill="white"/>
</clipPath>
</defs>
</svg>
