<svg width="20" height="22" viewBox="0 0 20 22" fill="none" xmlns="http://www.w3.org/2000/svg">
<path d="M4 16C4 16.3513 4 16.527 4.01567 16.6797C4.14575 17.9474 5.0626 18.9947 6.30206 19.2912C6.45134 19.3269 6.6255 19.3501 6.97368 19.3965L13.5656 20.2754C15.442 20.5256 16.3803 20.6507 17.1084 20.3612C17.7478 20.107 18.2803 19.6408 18.6168 19.0406C19 18.3571 19 17.4106 19 15.5175V6.4825C19 4.58946 19 3.64294 18.6168 2.95941C18.2803 2.3593 17.7478 1.89307 17.1084 1.63886C16.3803 1.34932 15.442 1.47442 13.5656 1.72461L6.97368 2.60353C6.62546 2.64996 6.45135 2.67318 6.30206 2.70889C5.0626 3.00538 4.14575 4.0526 4.01567 5.32036C4 5.47307 4 5.64872 4 6.00002M10 7.00002L14 11M14 11L10 15M14 11H1" stroke="#D92D20" stroke-width="2" stroke-linecap="round" stroke-linejoin="round"/>
</svg>
