<svg width="56" height="56" viewBox="0 0 56 56" fill="none" xmlns="http://www.w3.org/2000/svg">
<rect x="4" y="4" width="48" height="48" rx="24" fill="#FEE4E2"/>
<path d="M22 33C22 33.3513 22 33.527 22.0157 33.6797C22.1457 34.9474 23.0626 35.9947 24.3021 36.2912C24.4513 36.3269 24.6255 36.3501 24.9737 36.3965L31.5656 37.2754C33.442 37.5256 34.3803 37.6507 35.1084 37.3612C35.7478 37.107 36.2803 36.6408 36.6168 36.0406C37 35.3571 37 34.4106 37 32.5175V23.4825C37 21.5895 37 20.6429 36.6168 19.9594C36.2803 19.3593 35.7478 18.8931 35.1084 18.6389C34.3803 18.3493 33.442 18.4744 31.5656 18.7246L24.9737 19.6035C24.6255 19.65 24.4514 19.6732 24.3021 19.7089C23.0626 20.0054 22.1457 21.0526 22.0157 22.3204C22 22.4731 22 22.6487 22 23M28 24L32 28M32 28L28 32M32 28H19" stroke="#D92D20" stroke-width="2" stroke-linecap="round" stroke-linejoin="round"/>
<rect x="4" y="4" width="48" height="48" rx="24" stroke="#FEF3F2" stroke-width="8"/>
</svg>
