<svg width="19" height="28" viewBox="0 0 19 28" fill="none" xmlns="http://www.w3.org/2000/svg">
<path d="M14.4449 12.4155H9.0378C8.86691 12.4155 8.70012 12.4328 8.53908 12.4656L8.4791 12.2372L5.78994 1.99658C5.78994 1.99658 5.44815 0.388672 7.05524 0.0477C8.66232 -0.294093 9.00412 1.31299 9.00412 1.31299L11.5487 10.8183C11.9151 10.838 12.27 10.8701 12.6209 10.9062L14.3142 2.26936C14.3142 2.26936 14.4687 0.633514 16.1054 0.787157C17.7412 0.941621 17.5867 2.57746 17.5867 2.57746L15.8901 11.7475L15.7085 12.7286C15.3273 12.5355 14.9017 12.4155 14.4449 12.4155ZM1.57422 10.7723H1.71225C2.58235 10.7723 3.28647 11.4772 3.28647 12.3473V15.7702C3.28647 16.6403 2.58235 17.3452 1.71225 17.3452H1.57422C0.704127 17.3452 0 16.6403 0 15.7702V12.3473C0 11.4772 0.704127 10.7723 1.57422 10.7723ZM7.25818 13.2043L7.21217 13.2552C6.82272 13.6899 6.57295 14.2502 6.57295 14.8804C6.57295 14.9321 6.58363 14.9814 6.58774 15.0324C6.62389 15.5894 6.8408 16.0939 7.18587 16.4899C7.12754 16.5959 7.05195 16.6896 6.97308 16.78C6.67236 17.1226 6.24183 17.3452 5.75133 17.3452C4.84426 17.3452 4.10809 16.6091 4.10809 15.702V10.7723C4.10809 10.41 4.22887 10.078 4.4277 9.80606C4.72677 9.39772 5.20577 9.12905 5.75133 9.12905C6.6584 9.12905 7.39457 9.86522 7.39457 10.7723V13.0547C7.34445 13.0999 7.30501 13.1558 7.25818 13.2043Z" fill="#FFDC5D"/>
<path d="M1.69418 18.1669C2.53551 18.1669 3.27579 17.7347 3.70714 17.0807C3.8082 17.2311 3.9298 17.365 4.06126 17.4891C5.03488 18.4052 6.55405 18.3468 7.48494 17.4184C7.60983 17.2935 7.73389 17.1678 7.8292 17.0174L7.82674 17.015C7.99188 17.1095 8.21618 17.3453 9.0378 17.3453H11.1222C10.8182 17.5745 10.5405 17.8571 10.2809 18.1669C9.27196 19.3722 8.62699 21.1296 8.62699 23.0966C8.62699 23.3234 8.81103 23.5074 9.0378 23.5074C9.26457 23.5074 9.44861 23.3234 9.44861 23.0966C9.44861 21.0031 10.2341 19.1734 11.4016 18.1669C12.003 17.6485 12.703 17.3453 13.454 17.3453C14.0398 17.4102 14.1499 16.5237 13.5567 16.5237H9.0378C8.13073 16.5237 7.39456 15.7875 7.39456 14.8804C7.39456 13.9734 8.13073 13.2372 9.0378 13.2372H15.6107C16.3157 13.2372 16.9746 13.7269 17.1825 14.3998L18.0756 17.3453C18.1602 17.6205 18.4692 18.8825 18.4133 19.1454C18.4133 23.0966 14.555 27.2047 9.85942 27.2047C4.4885 27.2047 0.128172 22.9068 0.0115023 17.5638L0.0230049 17.572C0.446138 17.9377 0.989228 18.1669 1.5923 18.1669H1.69418Z" fill="#FFDC5D"/>
</svg>
