<svg width="16" height="16" viewBox="0 0 16 16" fill="none" xmlns="http://www.w3.org/2000/svg">
<path fill-rule="evenodd" clip-rule="evenodd" d="M12.4642 6.27373C12.4642 2.85482 9.69263 0.083252 6.27373 0.083252C2.85482 0.083252 0.083252 2.85482 0.083252 6.27373C0.083252 9.69263 2.85482 12.4642 6.27373 12.4642C7.68237 12.4642 8.98203 11.993 10.0221 11.2007L14.494 15.6725C14.8194 15.9979 15.3471 15.9979 15.6725 15.6725C15.9979 15.3471 15.9979 14.8194 15.6725 14.494L11.2007 10.0221C11.993 8.98203 12.4642 7.68237 12.4642 6.27373ZM6.27373 1.74992C8.77216 1.74992 10.7975 3.7753 10.7975 6.27373C10.7975 7.52317 10.2921 8.65298 9.47254 9.47254C8.65298 10.2921 7.52317 10.7975 6.27373 10.7975C3.7753 10.7975 1.74992 8.77216 1.74992 6.27373C1.74992 3.7753 3.7753 1.74992 6.27373 1.74992Z" fill="#BEBBB9"/>
</svg>
