<svg width="18" height="18" viewBox="0 0 18 18" fill="none" xmlns="http://www.w3.org/2000/svg">
<path d="M7.74928 10.25L16.4993 1.50002M7.85559 10.5234L10.0457 16.1551C10.2386 16.6512 10.3351 16.8993 10.4741 16.9717C10.5946 17.0345 10.7381 17.0345 10.8587 16.9719C10.9978 16.8997 11.0946 16.6517 11.2881 16.1558L16.78 2.08269C16.9547 1.63504 17.0421 1.41121 16.9943 1.26819C16.9528 1.14398 16.8553 1.04651 16.7311 1.00501C16.5881 0.957234 16.3643 1.04458 15.9166 1.21927L1.84349 6.71122C1.34759 6.90474 1.09965 7.0015 1.02739 7.14059C0.964749 7.26116 0.964833 7.4047 1.02761 7.5252C1.10004 7.66421 1.3481 7.76067 1.84422 7.95361L7.47589 10.1437C7.5766 10.1829 7.62695 10.2024 7.66935 10.2327C7.70693 10.2595 7.7398 10.2924 7.7666 10.3299C7.79685 10.3723 7.81643 10.4227 7.85559 10.5234Z" stroke="#164996" stroke-width="1.66667" stroke-linecap="round" stroke-linejoin="round"/>
</svg>
