<svg width="21" height="20" viewBox="0 0 21 20" fill="none" xmlns="http://www.w3.org/2000/svg">
<path d="M6.33333 9.16667C5.55836 9.16667 5.17087 9.16667 4.85295 9.25185C3.99022 9.48302 3.31635 10.1569 3.08519 11.0196C3 11.3375 3 11.725 3 12.5V13.5C3 14.9001 3 15.6002 3.27248 16.135C3.51217 16.6054 3.89462 16.9878 4.36502 17.2275C4.8998 17.5 5.59987 17.5 7 17.5H14C15.4001 17.5 16.1002 17.5 16.635 17.2275C17.1054 16.9878 17.4878 16.6054 17.7275 16.135C18 15.6002 18 14.9001 18 13.5V12.5C18 11.725 18 11.3375 17.9148 11.0196C17.6836 10.1569 17.0098 9.48302 16.147 9.25185C15.8291 9.16667 15.4416 9.16667 14.6667 9.16667M13.8333 5.83333L10.5 2.5M10.5 2.5L7.16667 5.83333M10.5 2.5V12.5" stroke="#475467" stroke-width="1.66667" stroke-linecap="round" stroke-linejoin="round"/>
</svg>
