<svg width="57" height="56" viewBox="0 0 57 56" fill="none" xmlns="http://www.w3.org/2000/svg">
<rect x="0.5" width="56" height="56" rx="28" fill="#FEF0C7"/>
<path d="M28.4998 30.9167V23.9167M24.9998 27.4167H31.9998M37.8332 28C37.8332 33.7265 31.5869 37.8915 29.3142 39.2173C29.0559 39.368 28.9267 39.4434 28.7445 39.4825C28.603 39.5128 28.3967 39.5128 28.2552 39.4825C28.073 39.4434 27.9438 39.368 27.6855 39.2173C25.4128 37.8915 19.1665 33.7265 19.1665 28V22.4205C19.1665 21.4878 19.1665 21.0214 19.3191 20.6205C19.4538 20.2663 19.6728 19.9503 19.9571 19.6998C20.2789 19.4162 20.7156 19.2524 21.589 18.9249L27.8444 16.5791C28.087 16.4882 28.2082 16.4427 28.333 16.4247C28.4436 16.4087 28.556 16.4087 28.6667 16.4247C28.7915 16.4427 28.9127 16.4882 29.1553 16.5791L35.4107 18.9249C36.2841 19.2524 36.7208 19.4162 37.0426 19.6998C37.3269 19.9503 37.5459 20.2663 37.6806 20.6205C37.8332 21.0214 37.8332 21.4878 37.8332 22.4205V28Z" stroke="#DC6803" stroke-width="2" stroke-linecap="round" stroke-linejoin="round"/>
</svg>
