<svg width="14" height="14" viewBox="0 0 14 14" fill="none" xmlns="http://www.w3.org/2000/svg">
<path fill-rule="evenodd" clip-rule="evenodd" d="M13.4001 6.99961C13.4001 8.69699 12.7258 10.3249 11.5256 11.5251C10.3253 12.7253 8.69748 13.3996 7.0001 13.3996C5.30271 13.3996 3.67485 12.7253 2.47461 11.5251C1.27438 10.3249 0.600098 8.69699 0.600098 6.99961C0.600098 5.30222 1.27438 3.67436 2.47461 2.47413C3.67485 1.27389 5.30271 0.599609 7.0001 0.599609C8.69748 0.599609 10.3253 1.27389 11.5256 2.47413C12.7258 3.67436 13.4001 5.30222 13.4001 6.99961ZM7.0001 4.59961C6.85954 4.59947 6.72142 4.63637 6.59966 4.70659C6.47789 4.77682 6.37678 4.87788 6.3065 4.99961C6.25575 5.09391 6.18659 5.17706 6.10311 5.24414C6.01963 5.31121 5.92353 5.36084 5.82051 5.39009C5.71749 5.41934 5.60965 5.4276 5.50338 5.4144C5.39711 5.40119 5.29457 5.36679 5.20184 5.31322C5.10912 5.25965 5.02809 5.18801 4.96356 5.10254C4.89904 5.01708 4.85233 4.91953 4.8262 4.81568C4.80007 4.71182 4.79506 4.60378 4.81147 4.49796C4.82787 4.39213 4.86536 4.29068 4.9217 4.19961C5.18587 3.7421 5.59362 3.38454 6.08172 3.18238C6.56981 2.98022 7.11097 2.94476 7.62127 3.0815C8.13157 3.21823 8.5825 3.51952 8.90412 3.93865C9.22573 4.35777 9.40007 4.87131 9.4001 5.39961C9.40024 5.8961 9.24645 6.38043 8.95991 6.78589C8.67336 7.19135 8.26816 7.498 7.8001 7.66361V7.79961C7.8001 8.01178 7.71581 8.21527 7.56578 8.36529C7.41575 8.51532 7.21227 8.59961 7.0001 8.59961C6.78792 8.59961 6.58444 8.51532 6.43441 8.36529C6.28438 8.21527 6.2001 8.01178 6.2001 7.79961V6.99961C6.2001 6.78744 6.28438 6.58395 6.43441 6.43392C6.58444 6.28389 6.78792 6.19961 7.0001 6.19961C7.21227 6.19961 7.41575 6.11532 7.56578 5.96529C7.71581 5.81527 7.8001 5.61178 7.8001 5.39961C7.8001 5.18744 7.71581 4.98395 7.56578 4.83392C7.41575 4.68389 7.21227 4.59961 7.0001 4.59961ZM7.0001 10.9996C7.21227 10.9996 7.41575 10.9153 7.56578 10.7653C7.71581 10.6153 7.8001 10.4118 7.8001 10.1996C7.8001 9.98744 7.71581 9.78395 7.56578 9.63392C7.41575 9.48389 7.21227 9.39961 7.0001 9.39961C6.78792 9.39961 6.58444 9.48389 6.43441 9.63392C6.28438 9.78395 6.2001 9.98744 6.2001 10.1996C6.2001 10.4118 6.28438 10.6153 6.43441 10.7653C6.58444 10.9153 6.78792 10.9996 7.0001 10.9996Z" fill="#9CA3AF"/>
</svg>
