<svg width="37" height="36" viewBox="0 0 37 36" fill="none" xmlns="http://www.w3.org/2000/svg">
<rect x="2.5" y="2" width="32" height="32" rx="16" fill="#C1C6D4"/>
<path d="M19.8332 11.513V14.2667C19.8332 14.6401 19.8332 14.8268 19.9058 14.9694C19.9697 15.0948 20.0717 15.1968 20.1972 15.2607C20.3398 15.3334 20.5265 15.3334 20.8998 15.3334H23.6535M23.8332 16.6589V21.4667C23.8332 22.5868 23.8332 23.1469 23.6152 23.5747C23.4234 23.951 23.1175 24.257 22.7412 24.4487C22.3133 24.6667 21.7533 24.6667 20.6332 24.6667H16.3665C15.2464 24.6667 14.6863 24.6667 14.2585 24.4487C13.8822 24.257 13.5762 23.951 13.3845 23.5747C13.1665 23.1469 13.1665 22.5868 13.1665 21.4667V14.5334C13.1665 13.4133 13.1665 12.8532 13.3845 12.4254C13.5762 12.0491 13.8822 11.7431 14.2585 11.5514C14.6863 11.3334 15.2464 11.3334 16.3665 11.3334H18.5077C18.9969 11.3334 19.2415 11.3334 19.4716 11.3886C19.6757 11.4376 19.8708 11.5184 20.0497 11.6281C20.2516 11.7518 20.4245 11.9247 20.7704 12.2706L22.8959 14.3961C23.2418 14.742 23.4148 14.915 23.5385 15.1168C23.6481 15.2957 23.7289 15.4908 23.7779 15.6949C23.8332 15.9251 23.8332 16.1697 23.8332 16.6589Z" stroke="#33426A" stroke-width="1.33333" stroke-linecap="round" stroke-linejoin="round"/>
<rect x="2.5" y="2" width="32" height="32" rx="16" stroke="#EBEDF1" stroke-width="4"/>
</svg>
