<svg width="20" height="20" viewBox="0 0 20 20" fill="none" xmlns="http://www.w3.org/2000/svg">
<path d="M13.3334 17.5V16.5C13.3334 15.0999 13.3334 14.3998 13.0609 13.865C12.8212 13.3946 12.4387 13.0122 11.9683 12.7725C11.4336 12.5 10.7335 12.5 9.33335 12.5H5.66669C4.26656 12.5 3.56649 12.5 3.03171 12.7725C2.56131 13.0122 2.17885 13.3946 1.93917 13.865C1.66669 14.3998 1.66669 15.0999 1.66669 16.5V17.5M13.3334 5.00001L15 6.66668L18.3334 3.33334M10.4167 6.25001C10.4167 7.86084 9.11085 9.16668 7.50002 9.16668C5.88919 9.16668 4.58335 7.86084 4.58335 6.25001C4.58335 4.63918 5.88919 3.33334 7.50002 3.33334C9.11085 3.33334 10.4167 4.63918 10.4167 6.25001Z" stroke="#667085" stroke-width="1.66667" stroke-linecap="round" stroke-linejoin="round"/>
</svg>
