<svg width="20" height="18" viewBox="0 0 20 18" fill="none" xmlns="http://www.w3.org/2000/svg">
<path d="M15.0004 12.1974C16.2136 12.8069 17.2538 13.785 18.0131 15.008C18.1634 15.2502 18.2386 15.3713 18.2646 15.539C18.3174 15.8798 18.0844 16.2988 17.767 16.4336C17.6108 16.5 17.4351 16.5 17.0837 16.5M13.3337 8.6102C14.5685 7.99657 15.417 6.72238 15.417 5.25C15.417 3.77762 14.5685 2.50343 13.3337 1.8898M11.667 5.25C11.667 7.32107 9.98809 9 7.91702 9C5.84595 9 4.16702 7.32107 4.16702 5.25C4.16702 3.17893 5.84595 1.5 7.91702 1.5C9.98809 1.5 11.667 3.17893 11.667 5.25ZM2.13304 14.782C3.46163 12.7871 5.55816 11.5 7.91702 11.5C10.2759 11.5 12.3724 12.7871 13.701 14.782C13.9921 15.219 14.1376 15.4375 14.1208 15.7166C14.1078 15.9339 13.9653 16.2 13.7917 16.3313C13.5686 16.5 13.2619 16.5 12.6484 16.5H3.18565C2.57216 16.5 2.26542 16.5 2.04238 16.3313C1.86873 16.2 1.72626 15.9339 1.71321 15.7166C1.69646 15.4375 1.84199 15.219 2.13304 14.782Z" stroke="#667085" stroke-width="1.66667" stroke-linecap="round" stroke-linejoin="round"/>
</svg>
