<svg width="126" height="18" viewBox="0 0 126 18" fill="none" xmlns="http://www.w3.org/2000/svg">
<path d="M16.4946 17.2639C15.0965 17.2639 14.3975 17.1065 14.3975 16.7917L13.9027 7.32361L11.028 16.9097C10.9651 17.0986 10.431 17.1931 9.42569 17.1931C8.42033 17.1931 7.90194 17.1065 7.87053 16.9333L4.90159 7.22917L4.57171 16.65C4.556 16.8861 4.25753 17.0514 3.67631 17.1458C3.09509 17.2245 2.60812 17.2639 2.2154 17.2639C1.8384 17.2639 1.46924 17.2403 1.10794 17.1931C0.353926 17.0829 -0.0152278 16.8861 0.000480876 16.6028L0.54243 1.25556C0.54243 0.877778 1.50066 0.688889 3.41712 0.688889C3.98263 0.688889 4.67381 0.736112 5.49066 0.830556C6.30751 0.909259 6.76307 1.07454 6.85732 1.32639L9.49637 8.76389L11.8055 1.30278C11.9469 0.893519 13.0308 0.688889 15.0572 0.688889C15.6385 0.688889 16.3296 0.736112 17.1308 0.830556C17.9476 0.909259 18.3561 1.0588 18.3561 1.27917L19.0394 16.7681C19.0394 16.9412 18.7331 17.0671 18.1204 17.1458C17.5078 17.2245 16.9658 17.2639 16.4946 17.2639Z" fill="white"/>
<path d="M21.1418 15.8472V1.16111C21.1418 0.830556 21.9351 0.665279 23.5217 0.665279C25.124 0.665279 25.9251 0.830556 25.9251 1.16111V12.7306H29.5538C29.8366 12.7306 30.033 13.1005 30.1429 13.8403C30.19 14.2023 30.2136 14.5722 30.2136 14.95C30.2136 15.3278 30.19 15.7134 30.1429 16.1069C30.0172 16.8625 29.813 17.2403 29.5303 17.2403H22.2729C21.9273 17.2403 21.6524 17.0986 21.4482 16.8153C21.2439 16.5319 21.1418 16.2093 21.1418 15.8472Z" fill="white"/>
<path d="M38.1083 17.2875C36.6788 17.2875 35.9641 17.1301 35.9641 16.8153V1.51528C35.9641 0.980092 36.2076 0.7125 36.6945 0.7125H40.8416C43.1665 0.7125 44.8395 1.19259 45.8605 2.15278C46.8973 3.11296 47.4157 4.50602 47.4157 6.33194C47.4157 7.84306 46.9287 9.22824 45.9548 10.4875C45.4678 11.1171 44.7531 11.6208 43.8106 11.9986C42.868 12.3764 41.7684 12.5653 40.5117 12.5653V16.7917C40.5117 16.9806 40.2133 17.1144 39.6163 17.1931C39.0351 17.256 38.5324 17.2875 38.1083 17.2875ZM40.5117 4.82083V8.55139H40.8181C41.3679 8.55139 41.8313 8.37824 42.2083 8.03194C42.5853 7.68565 42.7738 7.19769 42.7738 6.56806C42.7738 5.93843 42.6403 5.48982 42.3732 5.22222C42.1219 4.95463 41.6663 4.82083 41.0066 4.82083H40.5117Z" fill="white"/>
<path d="M53.9971 16.9097C53.9971 17.1616 53.251 17.2875 51.7587 17.2875C50.2506 17.2875 49.4966 17.1694 49.4966 16.9333V1.53889C49.4966 0.987963 49.7872 0.7125 50.3684 0.7125H54.869C59.0004 0.7125 61.0661 2.32593 61.0661 5.55278C61.0661 6.5287 60.8775 7.41806 60.5005 8.22083C60.1235 9.00787 59.5894 9.6375 58.8983 10.1097L61.8672 15.0681C61.7415 15.4458 61.3331 15.8787 60.6419 16.3667C59.6994 17.0435 58.9218 17.3819 58.3092 17.3819C57.6965 17.3819 57.241 17.1616 56.9425 16.7208L54.7276 11.55H53.9971V16.9097ZM53.9971 4.89167V8.43333H54.115C55.6073 8.43333 56.3535 7.81157 56.3535 6.56806C56.3535 6.00139 56.2042 5.58426 55.9057 5.31667C55.623 5.03333 55.1517 4.89167 54.492 4.89167H53.9971Z" fill="white"/>
<path d="M70.3933 17.4764C68.1941 17.4764 66.3955 16.7523 64.9974 15.3042C63.615 13.856 62.9238 11.7468 62.9238 8.97639C62.9238 6.19028 63.6229 4.08102 65.021 2.64861C66.4347 1.2162 68.2491 0.5 70.464 0.5C72.6946 0.5 74.4933 1.20833 75.8599 2.625C77.2266 4.02593 77.9099 6.1588 77.9099 9.02361C77.9099 11.8727 77.2109 13.9977 75.8128 15.3986C74.4147 16.7838 72.6082 17.4764 70.3933 17.4764ZM70.4169 5.03333C69.6629 5.03333 69.0267 5.37963 68.5083 6.07222C68.0056 6.76481 67.7543 7.74074 67.7543 9C67.7543 10.2435 67.9977 11.2037 68.4847 11.8806C68.9717 12.5417 69.6079 12.8722 70.3933 12.8722C71.1945 12.8722 71.8385 12.5338 72.3255 11.8569C72.8282 11.1801 73.0795 10.212 73.0795 8.95278C73.0795 7.69352 72.8203 6.72546 72.3019 6.04861C71.7992 5.37176 71.1709 5.03333 70.4169 5.03333Z" fill="white"/>
<path d="M78.8357 15.1153C78.8357 14.6588 78.9692 14.1315 79.2363 13.5333C79.5033 12.9194 79.7939 12.5023 80.1081 12.2819C80.705 12.7227 81.3098 12.9431 81.9224 12.9431L82.6529 12.825C83.5012 12.5731 83.941 11.8963 83.9724 10.7944V4.77361H82.0874C81.8203 4.77361 81.6318 4.43519 81.5219 3.75833C81.4747 3.42778 81.4512 3.08935 81.4512 2.74306C81.4512 2.39676 81.4747 2.05833 81.5219 1.72778C81.6318 1.05093 81.8203 0.7125 82.0874 0.7125H87.6954C88.0096 0.7125 88.2452 0.806944 88.4023 0.995834C88.5594 1.16898 88.6379 1.38148 88.6379 1.63333V12.7778C88.6379 14.3204 88.1195 15.4931 87.0827 16.2958C86.0617 17.0986 84.8285 17.5 83.3833 17.5C81.9539 17.5 80.8385 17.2875 80.0374 16.8625C79.2363 16.4375 78.8357 15.8551 78.8357 15.1153Z" fill="white"/>
<path d="M98.3438 7.27639C98.6423 7.27639 98.7915 7.82731 98.7915 8.92917C98.7915 9.25972 98.7523 9.65324 98.6737 10.1097C98.6109 10.5505 98.4852 10.7708 98.2967 10.7708H95.3042V13.1319H99.6398C99.9069 13.1319 100.087 13.4782 100.182 14.1708C100.229 14.4699 100.252 14.7926 100.252 15.1389C100.252 15.4694 100.205 15.9023 100.111 16.4375C100.017 16.9727 99.8597 17.2403 99.6398 17.2403H91.5812C90.9843 17.2403 90.6859 16.9963 90.6859 16.5083V1.32639C90.6859 0.91713 90.8665 0.7125 91.2278 0.7125H99.6634C99.9932 0.7125 100.158 1.41296 100.158 2.81389C100.158 4.19907 99.9932 4.89167 99.6634 4.89167H95.3042V7.27639H98.3438Z" fill="white"/>
<path d="M109.045 0.5C110.192 0.5 111.197 0.665278 112.061 0.995834C112.941 1.31065 113.381 1.74352 113.381 2.29444C113.381 2.84537 113.169 3.53009 112.745 4.34861C112.336 5.15139 111.991 5.55278 111.708 5.55278C111.629 5.55278 111.535 5.51343 111.425 5.43472C111.331 5.34028 111.095 5.24583 110.718 5.15139C110.357 5.0412 110.043 4.98611 109.776 4.98611C108.865 4.98611 108.126 5.3088 107.561 5.95417C107.011 6.59954 106.736 7.5912 106.736 8.92917C106.736 10.2514 107.019 11.2352 107.584 11.8806C108.166 12.5259 108.896 12.8486 109.776 12.8486C110.137 12.8486 110.538 12.8014 110.977 12.7069C111.433 12.5968 111.755 12.4472 111.944 12.2583C111.975 12.2269 112.038 12.2111 112.132 12.2111C112.226 12.2111 112.399 12.3921 112.65 12.7542C112.917 13.1005 113.161 13.5648 113.381 14.1472C113.601 14.7139 113.711 15.1546 113.711 15.4694C113.711 16.0833 113.24 16.5713 112.297 16.9333C111.354 17.2954 110.239 17.4764 108.951 17.4764C106.878 17.4764 105.173 16.7444 103.838 15.2806C102.503 13.8167 101.835 11.7546 101.835 9.09445C101.835 6.41852 102.518 4.31713 103.885 2.79028C105.267 1.26343 106.987 0.5 109.045 0.5Z" fill="white"/>
<path d="M122.607 16.8625C122.607 17.1773 121.829 17.3347 120.274 17.3347C118.719 17.3347 117.941 17.1773 117.941 16.8625V5.00972H115.114C114.847 5.00972 114.658 4.64769 114.548 3.92361C114.501 3.57732 114.478 3.22315 114.478 2.86111C114.478 2.49907 114.501 2.14491 114.548 1.79861C114.658 1.07454 114.847 0.7125 115.114 0.7125H125.364C125.631 0.7125 125.819 1.07454 125.929 1.79861C125.976 2.14491 126 2.49907 126 2.86111C126 3.22315 125.976 3.57732 125.929 3.92361C125.819 4.64769 125.631 5.00972 125.364 5.00972H122.607V16.8625Z" fill="white"/>
</svg>
