<svg width="34" height="35" viewBox="0 0 34 35" fill="none" xmlns="http://www.w3.org/2000/svg">
<path d="M23.7292 3.15H24.0833C23.8885 3.15 23.7292 2.9925 23.7292 2.8V3.15H10.2708V2.8C10.2708 2.9925 10.1115 3.15 9.91667 3.15H10.2708V6.3H7.08333V2.8C7.08333 1.25563 8.35391 0 9.91667 0H24.0833C25.6461 0 26.9167 1.25563 26.9167 2.8V6.3H23.7292V3.15ZM1.41667 6.3H32.5833C33.3669 6.3 34 6.92562 34 7.7V9.1C34 9.2925 33.8406 9.45 33.6458 9.45H30.9719L29.8784 32.3312C29.8076 33.8231 28.5591 35 27.0495 35H6.95052C5.43646 35 4.19245 33.8275 4.12161 32.3312L3.02813 9.45H0.354168C0.159374 9.45 0 9.2925 0 9.1V7.7C0 6.92562 0.633076 6.3 1.41667 6.3ZM7.29141 31.85H26.7086L27.7799 9.45H6.22005L7.29141 31.85Z" fill="#CD171F"/>
</svg>
