<svg width="18" height="15" viewBox="0 0 18 15" fill="none" xmlns="http://www.w3.org/2000/svg">
<path d="M13.9634 12.4659H4.93142C2.73484 12.4659 0.947754 10.9091 0.947754 8.99545V4.25104C0.947754 2.33709 2.73514 0.779968 4.93212 0.779968H11.5063C11.8731 0.779968 12.1704 1.03897 12.1704 1.35848C12.1704 1.67799 11.8731 1.93699 11.5063 1.93699H4.93212C3.46747 1.93699 2.27588 2.97508 2.27588 4.25104V8.99545C2.27588 10.2711 3.46717 11.3089 4.93142 11.3089H13.9634C15.428 11.3089 16.6196 10.2708 16.6196 8.99484V6.39154C16.6196 6.07203 16.9169 5.81303 17.2837 5.81303C17.6504 5.81303 17.9477 6.07203 17.9477 6.39154V8.99484C17.9477 10.9088 16.1603 12.4659 13.9634 12.4659ZM13.2993 14.2015C13.2993 13.8819 13.002 13.6229 12.6352 13.6229H6.26024C5.89348 13.6229 5.59618 13.8819 5.59618 14.2015C5.59618 14.521 5.89348 14.78 6.26024 14.78H12.6352C13.002 14.78 13.2993 14.521 13.2993 14.2015Z" fill="#0D1D54"/>
<path d="M17.2837 4.656C16.9169 4.656 16.6196 4.397 16.6196 4.07749V2.54955C16.6196 2.21179 16.3042 1.93699 15.9165 1.93699H14.1626C13.7958 1.93699 13.4985 1.67799 13.4985 1.35848C13.4985 1.03897 13.7958 0.779968 14.1626 0.779968H15.9165C17.0366 0.779968 17.9477 1.57377 17.9477 2.54955V4.07749C17.9477 4.397 17.6504 4.656 17.2837 4.656ZM15.6386 3.72468C15.8919 3.49363 15.8822 3.12743 15.617 2.90678C15.3518 2.68614 14.9314 2.69455 14.6781 2.92561C13.0665 4.39587 10.926 5.20559 8.65088 5.20559H8.25839C7.89163 5.20559 7.59433 5.46459 7.59433 5.7841C7.59433 6.10361 7.89163 6.36261 8.25839 6.36261H8.65088C11.2923 6.36261 13.774 5.42577 15.6386 3.72468Z" fill="#CD171F"/>
</svg>
